Coordinates
version=1
nRows=13
nColumns=36
inDegrees=yes

Units are S.I. units (second, meters, Newtons, ...)
If the header above contains a line with 'inDegrees', this indicates whether rotational values are in degrees (yes) or radians (no).

endheader
time	pelvis_tilt	pelvis_list	pelvis_rotation	pelvis_tx	pelvis_ty	pelvis_tz	hip_flexion_r	hip_adduction_r	hip_rotation_r	knee_angle_r	knee_angle_r_beta	ankle_angle_r	subtalar_angle_r	mtp_angle_r	hip_flexion_l	hip_adduction_l	hip_rotation_l	knee_angle_l	knee_angle_l_beta	ankle_angle_l	subtalar_angle_l	mtp_angle_l	lumbar_extension	lumbar_bending	lumbar_rotation	arm_flex_r	arm_add_r	arm_rot_r	elbow_flex_r	pro_sup_r	arm_flex_l	arm_add_l	arm_rot_l	elbow_flex_l	pro_sup_l
      1.76666670	     -2.75098847	      0.51246696	      0.40548981	     -0.91147870	      1.25035546	     -0.07537727	      3.34388017	     -1.72154152	      5.24167783	      6.59654415	      0.11513141	      4.82434384	     -8.85852791	     -7.49999987	      3.07163296	     -0.64509595	      6.05922796	      5.04376046	      0.08803023	      3.59478086	     -8.37356380	     -7.49999987	     -4.73909812	      0.74797244	     -2.16158570	      4.96473572	     -8.52985145	     14.59218182	     37.96814861	     72.51691022	      1.23471111	     -8.90481892	      9.57795382	     40.98663046	     79.01082833
      1.77083330	     -2.77367176	      0.50492455	      0.43641200	     -0.91099405	      1.25141115	     -0.07575264	      3.35196267	     -1.71483790	      5.33953538	      6.64793542	      0.11602836	      4.69338548	     -9.12038185	     -7.49999987	      3.08277422	     -0.65520332	      6.07133783	      5.02492973	      0.08770157	      3.68896418	     -8.21504403	     -7.49999987	     -4.72893545	      0.74847501	     -2.18930542	      4.92905579	     -8.54974248	     14.69403272	     37.96683162	     72.35275609	      1.20812031	     -8.89470747	      9.63500100	     41.04058171	     78.76173860
      1.77500000	     -2.86106705	      0.50083975	      0.50546445	     -0.91184625	      1.25320880	     -0.07574850	      3.47762179	     -1.72655216	      5.27978011	      6.67226174	      0.11645294	      4.59129488	     -9.18171260	     -7.49999987	      3.15481617	     -0.67135609	      6.03771649	      4.96112611	      0.08658799	      3.66120206	     -8.10394699	     -7.49999987	     -4.63446235	      0.71354272	     -2.27394872	      4.95383847	     -8.44466751	     14.13291599	     37.79453689	     77.43993177	      1.09463856	     -8.74187984	      8.15464466	     41.15524239	     85.72791406
      1.77916670	     -2.86714463	      0.51131366	      0.52281061	     -0.91164687	      1.25180159	     -0.07624532	      3.48122733	     -1.76606164	      5.29023974	      6.62585638	      0.11564301	      4.56538213	     -9.20290524	     -7.49999987	      3.12880753	     -0.65484322	      6.00111993	      4.91423414	      0.08576957	      3.64045061	     -8.01592515	     -7.49999987	     -4.65507720	      0.71491034	     -2.26962513	      4.97426633	     -8.41152544	     14.05462188	     37.85935659	     76.21996949	      1.09359894	     -8.72548529	      8.29409778	     41.18789022	     84.17860822
      1.78333330	     -2.87185616	      0.50512740	      0.58022020	     -0.91104056	      1.25140587	     -0.07628913	      3.46668419	     -1.77899110	      5.36776436	      6.56560283	      0.11459139	      4.40005896	     -9.35261110	     -7.49999987	      3.07550679	     -0.65992057	      5.98288468	      4.78694887	      0.08354802	      3.61625305	     -8.00192734	     -7.49999987	     -4.61580710	      0.70448668	     -2.28910934	      4.94747862	     -8.41017817	     14.12028675	     37.77855824	     75.72185810	      1.17745845	     -8.77121819	      8.49227571	     41.15375638	     83.53905274
      1.78750000	     -2.88600155	      0.50080761	      0.61823876	     -0.91019383	      1.25311598	     -0.07653934	      3.41162130	     -1.78887614	      5.41285913	      6.43341250	      0.11228423	      4.27313317	     -9.37258374	     -7.49999987	      2.97386564	     -0.67158355	      5.81398478	      4.63335319	      0.08086727	      3.72467969	     -7.71138940	     -7.49999987	     -4.55032161	      0.69788323	     -2.29002210	      4.91512879	     -8.36601705	     13.92948021	     37.63887465	     77.18766644	      1.14911817	     -8.72802874	      8.27545822	     41.11081736	     85.21251559
      1.79166670	     -2.89941337	      0.47430787	      0.69030954	     -0.91062164	      1.25154164	     -0.07683102	      3.38017871	     -1.77201397	      5.32911612	      6.39805844	      0.11166719	      4.24814077	     -9.23621846	     -7.49999987	      2.92399308	     -0.67978158	      5.85905409	      4.54338158	      0.07929697	      3.81326207	     -7.64846286	     -7.49999987	     -4.49581366	      0.73314414	     -2.29992545	      4.87295472	     -8.35778091	     13.85046523	     37.59931290	     75.99941380	      1.18397634	     -8.69141045	      8.36881752	     41.03771458	     83.59295638
      1.79583330	     -2.85416508	      0.46574905	      0.68628178	     -0.91161343	      1.25215776	     -0.07719892	      3.33061583	     -1.76853399	      5.41703109	      6.34025599	      0.11065834	      4.18099372	     -9.30092925	     -7.49999987	      2.80479544	     -0.67673739	      5.79412670	      4.43101140	      0.07733574	      3.90173698	     -7.57766447	     -7.49999987	     -4.57367819	      0.75400004	     -2.24393493	      4.87617186	     -8.37299440	     13.86389122	     37.65693771	     74.61488938	      1.24070507	     -8.67506303	      8.53660485	     41.08851900	     81.81163408
      1.80000000	     -2.84730800	      0.44053457	      0.72609706	     -0.91077887	      1.25438228	     -0.07697430	      3.27325612	     -1.75131033	      5.32339480	      6.20061001	      0.10822106	      4.25127872	     -8.97521401	     -7.49999987	      2.68245317	     -0.70248721	      5.82807803	      4.24765575	      0.07413558	      3.87590774	     -7.44714008	     -7.49999987	     -4.51599805	      0.80951274	     -2.32322486	      4.98869962	     -8.39647702	     13.91325989	     37.39172276	     77.37310154	      1.18058933	     -8.65217603	      8.18755256	     41.11200894	     85.37101555
      1.80416670	     -2.74965111	      0.45845997	      0.71208056	     -0.91036480	      1.25193264	     -0.07689781	      3.11376370	     -1.78308895	      5.26238940	      6.10475142	      0.10654801	      4.28203936	     -8.85073018	     -7.49999987	      2.47840706	     -0.68636641	      5.78438110	      4.08726807	      0.07133629	      3.89532592	     -7.42857760	     -7.49999987	     -4.61780528	      0.78376041	     -2.31480727	      4.94977161	     -8.34815514	     13.83925360	     37.48297652	     76.35184163	      1.19177455	     -8.66399804	      8.20966885	     41.15644403	     84.12789229
      1.80833330	     -2.68539471	      0.47040449	      0.66592988	     -0.91054050	      1.25341941	     -0.07682190	      3.05882129	     -1.80445641	      5.21883885	      6.10232481	      0.10650566	      4.37459113	     -8.56841957	     -7.49999987	      2.30783383	     -0.68430521	      5.70285034	      3.92970887	      0.06858636	      4.01900924	     -7.31029510	     -7.49999987	     -4.64783617	      0.78265508	     -2.30919191	      4.97337309	     -8.32725257	     13.84849147	     37.40298116	     75.36952072	      1.26186173	     -8.64405496	      8.31071567	     41.10470393	     82.83849810
      1.81250000	     -2.68415495	      0.47521471	      0.59406056	     -0.91117232	      1.25450869	     -0.07622379	      3.03403671	     -1.80724348	      5.23926444	      6.00374376	      0.10478510	      4.32109502	     -8.46653683	     -7.49999987	      2.20832937	     -0.69665855	      5.65083317	      3.74984051	      0.06544706	      3.89366719	     -7.28626605	     -7.49999987	     -4.62972931	      0.77484269	     -2.26925340	      4.97606607	     -8.28051960	     13.92361264	     37.37811958	     74.94244254	      1.23408778	     -8.67329448	      8.40444895	     41.07428434	     82.25703349
      1.81666670	     -2.63582828	      0.46707199	      0.54065590	     -0.91155343	      1.25601939	     -0.07615272	      2.97019339	     -1.78802556	      5.24396192	      5.94782899	      0.10380920	      4.30102898	     -8.22174579	     -7.49999987	      2.09927426	     -0.72374873	      5.51320176	      3.60406913	      0.06290287	      3.90585485	     -6.90895046	     -7.49999987	     -4.68891334	      0.77684553	     -2.24030386	      5.04912045	     -8.23101047	     13.99692473	     37.22549072	     74.39537167	      1.30603994	     -8.67257238	      8.48031132	     40.92621374	     81.46983434
